<?xml version="1.0" standalone="no"?>
<!DOCTYPE svg PUBLIC "-//W3C//DTD SVG 20010904//EN"
 "http://www.w3.org/TR/2001/REC-SVG-20010904/DTD/svg10.dtd">
<svg version="1.0" xmlns="http://www.w3.org/2000/svg"
 width="1280.000000pt" height="640.000000pt" viewBox="0 0 1280.000000 640.000000"
 preserveAspectRatio="xMidYMid meet">
<g transform="translate(0.000000,640.000000) scale(0.100000,-0.100000)"
fill="#000000" stroke="none">
<path d="M6910 4398 c-31 -63 -50 -119 -50 -149 0 -15 -6 -29 -14 -32 -17 -7
-26 -70 -32 -234 -4 -89 -9 -125 -20 -133 -12 -10 -14 -67 -14 -345 0 -349 -2
-365 -44 -349 -11 4 -16 19 -16 48 0 33 -4 43 -22 51 -21 9 -23 18 -26 92 l-3
82 -32 3 -32 3 -5 245 -5 245 -83 80 c-46 44 -89 91 -95 105 -12 25 -14 25
-122 24 -61 0 -122 -4 -136 -8 -25 -7 -27 -5 -52 66 -14 40 -28 96 -32 123
-15 129 -29 139 -39 29 -7 -80 -56 -223 -88 -260 -30 -34 -40 -124 -47 -434
l-6 -295 -40 0 c-38 0 -41 3 -68 53 -16 29 -33 50 -38 46 -5 -3 -21 -28 -34
-55 l-25 -49 -70 0 c-66 0 -71 -2 -80 -25 -7 -19 -17 -25 -40 -25 -26 0 -33 6
-45 34 -15 36 -68 86 -91 86 -11 0 -14 20 -14 98 0 53 -5 115 -11 137 -6 22
-13 59 -16 83 l-5 43 -92 -3 -91 -3 -3 -32 c-4 -36 -29 -65 -36 -42 -3 8 -7
88 -9 179 -3 133 -7 171 -21 198 -10 17 -23 32 -31 32 -7 0 -15 6 -18 14 -3 8
-16 16 -29 18 -20 3 -24 10 -28 57 l-5 54 -32 -27 c-20 -17 -33 -37 -33 -51 0
-13 -11 -35 -25 -49 -14 -14 -25 -33 -25 -44 0 -10 -6 -24 -12 -30 -9 -9 -14
-68 -16 -200 -2 -110 -8 -192 -14 -199 -8 -10 -56 -13 -179 -13 l-168 0 -3
-62 -3 -63 -75 -5 -75 -5 -3 -623 c-1 -409 -6 -621 -12 -617 -6 3 -10 17 -10
30 0 18 -6 24 -27 27 l-28 3 -3 355 c-1 216 -6 358 -12 364 -6 6 -10 27 -10
47 0 35 -2 38 -32 41 -23 2 -36 10 -43 26 -13 29 -17 28 -54 -9 -23 -22 -31
-40 -31 -65 0 -24 -5 -34 -15 -34 -11 0 -15 11 -15 39 0 22 -6 44 -15 51 -9 8
-15 30 -15 56 0 40 -2 44 -24 44 -36 0 -45 -19 -48 -105 -3 -74 -5 -80 -25
-83 -23 -3 -23 -3 -23 137 l0 141 -215 0 -215 0 0 -65 c0 -53 -3 -66 -19 -75
-11 -5 -27 -7 -35 -4 -14 5 -16 50 -16 389 l0 384 -87 27 c-102 33 -113 39
-113 68 0 16 -15 28 -60 48 -52 24 -59 31 -62 59 -4 38 -28 53 -28 17 0 -35
-18 -48 -66 -48 -23 0 -44 -5 -46 -10 -2 -6 -26 -16 -53 -23 -46 -11 -50 -14
-55 -47 l-5 -35 -72 -3 -73 -3 0 -428 c0 -408 -1 -429 -19 -445 -12 -11 -31
-16 -53 -14 l-33 3 -3 65 c-1 36 -7 74 -12 85 -5 11 -10 31 -12 45 -2 20 -8
25 -33 25 -29 0 -30 -2 -35 -50 l-5 -50 -42 -3 -43 -3 0 -58 c0 -31 -5 -62
-12 -69 -8 -8 -48 -12 -115 -12 l-103 0 0 -34 c0 -39 -20 -62 -38 -44 -8 8
-12 66 -12 184 0 105 -4 175 -10 179 -5 3 -10 17 -10 29 0 23 -3 24 -104 28
-86 4 -108 8 -135 27 -24 17 -31 30 -31 54 l0 32 -68 -1 c-37 -1 -106 -2 -154
-3 l-87 -1 -3 -47 -3 -48 -112 -3 -113 -3 0 -25 c0 -13 -7 -27 -15 -30 -10 -4
-15 -21 -15 -53 0 -61 -9 -73 -51 -69 l-34 3 -3 227 c-2 220 -2 227 18 233 11
3 20 15 20 26 0 16 -7 19 -44 19 -29 0 -46 5 -49 15 -5 11 -31 15 -119 17
-112 3 -113 3 -116 28 -2 14 -7 29 -12 34 -5 5 -56 8 -113 7 -65 -1 -108 2
-112 8 -8 13 -55 15 -55 2 0 -5 -9 -12 -19 -16 -13 -4 -21 -17 -23 -38 l-3
-32 -105 -3 c-58 -1 -109 -7 -114 -12 -6 -6 -20 -10 -32 -10 -36 0 -54 -11
-54 -31 0 -12 7 -19 19 -19 10 0 22 -7 25 -16 3 -9 6 -263 6 -565 l0 -549 294
0 294 0 7 -29 c9 -41 3 -110 -10 -121 -7 -6 -172 -11 -391 -12 l-379 -3 -2
-180 c-2 -287 -1 -266 -23 -272 -19 -5 -20 -14 -20 -124 l0 -119 413 -2 c226
-1 423 -2 437 -1 14 0 549 4 1190 8 l1165 8 69 23 c97 33 146 31 146 -7 0 -18
49 -19 1938 -22 1729 -3 1950 -5 2057 -20 109 -15 369 -16 2753 -17 l2632 0 0
1245 0 1245 -120 0 -120 0 -2 -457 -3 -458 -79 -3 c-57 -2 -82 1 -87 10 -5 7
-9 66 -9 130 0 108 -2 117 -20 123 -11 4 -33 17 -48 30 -18 15 -44 25 -73 27
l-44 3 -3 43 c-2 29 -8 42 -18 42 -8 0 -17 13 -20 30 -4 17 -10 30 -14 30 -8
0 -20 -74 -20 -120 0 -15 -6 -30 -14 -33 -8 -3 -16 -16 -18 -29 -2 -15 -11
-24 -25 -26 -22 -3 -23 -7 -23 -117 0 -62 -3 -120 -6 -129 -5 -12 -21 -16 -65
-16 l-58 0 -3 -97 -3 -98 -170 0 -170 0 -3 290 -2 289 -37 38 -37 38 -211 0
-211 0 -37 -38 -37 -38 -2 -359 -3 -360 -155 0 -155 0 -5 50 c-5 49 -5 50 -42
53 l-37 3 -3 -53 -3 -53 -75 0 c-72 0 -75 1 -78 24 -2 14 -21 51 -43 82 l-39
58 0 343 c0 200 -4 349 -10 358 -5 8 -19 15 -31 15 -20 0 -26 12 -52 108 -16
60 -33 105 -37 100 -4 -4 -19 -52 -33 -107 -14 -54 -28 -101 -31 -104 -3 -2
-12 1 -20 7 -11 10 -17 7 -30 -11 -13 -18 -16 -50 -16 -149 0 -87 -5 -140 -15
-169 -11 -31 -15 -87 -15 -211 l0 -169 -64 0 c-59 0 -64 2 -70 24 -5 21 -13
25 -49 28 l-42 3 -2 55 c-5 99 -23 159 -58 186 -40 30 -51 30 -98 -1 l-37 -26
0 -103 c0 -86 -3 -105 -16 -110 -9 -3 -60 -6 -114 -6 -69 0 -100 -4 -102 -12
-3 -9 -30 -12 -90 -11 -82 2 -87 1 -102 -22 -9 -14 -25 -25 -35 -25 -10 0 -21
-9 -24 -19 -3 -12 -15 -21 -33 -23 -25 -3 -29 -8 -32 -40 -2 -20 -10 -42 -18
-48 -8 -7 -14 -30 -14 -51 0 -28 -4 -39 -15 -39 -10 0 -15 10 -15 34 0 26 -5
36 -20 41 -16 5 -20 15 -20 49 0 26 -6 48 -14 56 -8 6 -16 24 -18 38 -3 23 -9
28 -43 32 l-40 5 -6 60 -6 60 -1 -50 c-2 -55 -8 -68 -34 -78 -11 -4 -18 -20
-20 -49 l-3 -43 -110 -3 -111 -3 -29 31 c-34 35 -46 37 -70 10 -10 -11 -22
-20 -27 -20 -4 0 -8 108 -8 240 0 196 -2 240 -14 240 -7 0 -25 9 -40 21 -21
17 -26 29 -26 65 l0 44 -165 0 -165 0 0 -54 c0 -30 -4 -58 -10 -61 -6 -4 -10
-68 -10 -160 0 -85 -3 -156 -7 -158 -5 -3 -18 -1 -30 4 -22 8 -23 12 -23 156
0 81 -4 153 -8 160 -5 8 -41 13 -97 15 l-90 3 -3 83 -3 82 -44 0 c-35 0 -45 4
-50 20 -5 17 -17 20 -93 22 l-87 3 -5 95 -5 95 -70 5 -70 5 -5 170 -5 170
-130 2 c-71 2 -140 5 -152 8 -14 3 -31 25 -49 60 -35 68 -56 71 -84 13z
m-5782 -1800 c7 -7 12 -40 12 -79 0 -52 -4 -68 -16 -73 -31 -12 -251 -7 -261
7 -12 16 -16 79 -8 117 l6 29 122 4 c67 1 124 4 128 5 3 1 10 -3 17 -10z"/>
</g>
</svg>
